<svg xmlns="http://www.w3.org/2000/svg" width="16" height="16" viewBox="431 260 16 16"><g data-name="button.settings"><path d="M436.818 267.9a2.182 2.182 0 1 1 0 .1z" stroke-linejoin="round" stroke-linecap="round" stroke-width="1.5" stroke="#afbbc6" fill="transparent" data-name="Ellipse 83"/><path d="M444.382 270.182a1.2 1.2 0 0 0 .24 1.323l.043.044a1.455 1.455 0 1 1-2.058 2.058l-.043-.043a1.2 1.2 0 0 0-1.324-.24 1.2 1.2 0 0 0-.727 1.098v.123a1.455 1.455 0 1 1-2.91 0v-.065a1.2 1.2 0 0 0-.785-1.098 1.2 1.2 0 0 0-1.323.24l-.044.043a1.455 1.455 0 1 1-2.058-2.058l.043-.043a1.2 1.2 0 0 0 .24-1.324 1.2 1.2 0 0 0-1.098-.727h-.123a1.455 1.455 0 0 1 0-2.91h.065a1.2 1.2 0 0 0 1.098-.785 1.2 1.2 0 0 0-.24-1.323l-.043-.044a1.455 1.455 0 1 1 2.058-2.058l.043.043a1.2 1.2 0 0 0 1.324.24h.058a1.2 1.2 0 0 0 .727-1.098v-.123a1.455 1.455 0 1 1 2.91 0v.065a1.2 1.2 0 0 0 .727 1.098 1.2 1.2 0 0 0 1.323-.24l.044-.043a1.455 1.455 0 1 1 2.058 2.058l-.043.043a1.2 1.2 0 0 0-.24 1.324v.058a1.2 1.2 0 0 0 1.098.727h.123a1.455 1.455 0 1 1 0 2.91h-.065a1.2 1.2 0 0 0-1.098.727Z" stroke-linejoin="round" stroke-linecap="round" stroke-width="1.5" stroke="#afbbc6" fill="transparent" data-name="Path 69"/></g></svg>